<svg width="204" height="48" viewBox="0 0 204 48" fill="none" xmlns="http://www.w3.org/2000/svg">
<path d="M10.8887 2.00195C11.5397 2.00195 12.0117 2.55534 12.3047 3.66211C12.3047 9.42383 11.8327 12.3047 10.8887 12.3047L10.4492 12.4512C9.4401 12.4512 8.93555 11.4258 8.93555 9.375C8.51237 6.9987 7.89388 5.81055 7.08008 5.81055C4.24805 8.12174 2.83203 12.7441 2.83203 19.6777C3.51562 30.485 4.41081 36.8978 5.51758 38.916C6.85221 41.2598 8.33333 42.4316 9.96094 42.4316H10.5957C12.9395 42.4316 14.8438 40.1204 16.3086 35.498C16.7318 35.1074 17.1224 34.9121 17.4805 34.9121C18.2943 34.9121 18.7663 35.4167 18.8965 36.4258C18.6361 38.6393 17.3665 40.9993 15.0879 43.5059C13.1673 44.7428 11.556 45.3613 10.2539 45.3613C5.89193 45.3613 3.02734 41.9759 1.66016 35.2051C0.553385 28.5319 0 23.4701 0 20.0195V19.3848C0 13.2324 1.41602 8.20312 4.24805 4.29688C5.19206 3.35286 6.28255 2.88086 7.51953 2.88086L9.22852 3.32031C9.22852 2.63672 9.7819 2.19727 10.8887 2.00195Z" fill="#3C1A05"/>
<path d="M30.709 27.5391C33.5085 28.5482 34.9896 31.6406 35.1523 36.8164V37.1094C35.0221 41.4388 33.8991 44.0918 31.7832 45.0684L30.416 45.2637C26.9329 44.4173 25.1914 41.7969 25.1914 37.4023V37.2559C25.1914 32.5033 26.7214 29.3294 29.7812 27.7344L30.709 27.5391ZM28.0723 36.8164V37.8906C28.4303 40.9505 29.3743 42.4805 30.9043 42.4805C31.7832 41.5039 32.2227 39.6159 32.2227 36.8164V36.5234C32.0599 33.0404 31.5065 31.1361 30.5625 30.8105C28.9023 31.5592 28.0723 33.5612 28.0723 36.8164Z" fill="#3C1A05"/>
<path d="M44.377 1.12305C44.8652 1.1556 45.321 1.5625 45.7441 2.34375C45.5163 2.70182 45.3698 3.35286 45.3047 4.29688L45.2559 4.93164L45.5488 24.1699C45.3861 32.8939 45.4837 39.2904 45.8418 43.3594L45.9395 43.75C45.6465 44.3685 45.1745 44.6615 44.5234 44.6289C43.0586 44.5312 42.4727 42.513 42.7656 38.5742C42.5703 36.4258 42.4727 26.5462 42.4727 8.93555C42.2773 7.86133 42.2285 6.44531 42.3262 4.6875V4.49219C42.4889 2.18099 43.1725 1.05794 44.377 1.12305Z" fill="#3C1A05"/>
<path d="M62.0488 28.0273L64.9785 28.5156V28.3691C65.6947 28.3691 66.248 28.9388 66.6387 30.0781L66.4922 33.1543V35.3027C66.4922 38.4603 66.9479 40.8203 67.8594 42.3828C67.599 43.1966 67.0944 43.6035 66.3457 43.6035C65.2715 43.6035 64.4902 42.3665 64.002 39.8926L63.9043 39.1113H63.4648C62.293 41.8783 60.6328 43.7174 58.4844 44.6289L57.752 44.8242C54.9525 44.043 53.5527 41.9922 53.5527 38.6719V38.3789C53.5527 34.2448 55.5547 30.957 59.5586 28.5156L62.0488 28.0273ZM56.4824 39.3066C56.7103 40.9342 57.2311 41.748 58.0449 41.748H58.1914C59.3307 41.748 61.1211 38.3138 63.5625 31.4453V31.2988L62.1465 31.0059H62.0488C59.4447 31.0059 57.5892 33.252 56.4824 37.7441V39.3066Z" fill="#3C1A05"/>
<path d="M74.9355 0C75.9772 0.16276 76.498 0.61849 76.498 1.36719L76.1562 4.19922V4.93164C76.6771 16.9759 77.4095 24.9674 78.3535 28.9062L78.4512 29.1016H78.6465C79.4603 28.2878 80.4857 27.7507 81.7227 27.4902C85.3359 28.5319 87.1426 31.1686 87.1426 35.4004V36.6211C86.9798 41.6016 85.4173 44.6777 82.4551 45.8496L81.2832 45.9961H80.7949L80.5996 45.8496L80.1602 45.9961V46.7773C80.1602 47.3307 79.8509 47.7376 79.2324 47.998H78.6465C77.6048 47.998 77.084 46.875 77.084 44.6289C76.8887 43.2617 76.4329 41.9596 75.7168 40.7227V40.2832L76.1562 39.502L75.8633 36.4746L76.0586 34.7656C74.1706 20.4753 73.2266 10.3841 73.2266 4.49219C73.2266 1.4974 73.7962 0 74.9355 0ZM79.1348 34.9609C79.1348 40.2344 79.6882 42.8711 80.7949 42.8711L80.9902 43.0664H81.8691C83.4967 41.7969 84.3105 39.502 84.3105 36.1816C84.3105 33.4798 83.5944 31.6243 82.1621 30.6152H81.0879C79.7858 31.6243 79.1348 33.0729 79.1348 34.9609Z" fill="#3C1A05"/>
<path d="M99.3945 27.5391C102.194 28.5482 103.675 31.6406 103.838 36.8164V37.1094C103.708 41.4388 102.585 44.0918 100.469 45.0684L99.1016 45.2637C95.6185 44.4173 93.877 41.7969 93.877 37.4023V37.2559C93.877 32.5033 95.4069 29.3294 98.4668 27.7344L99.3945 27.5391ZM96.7578 36.8164V37.8906C97.1159 40.9505 98.0599 42.4805 99.5898 42.4805C100.469 41.5039 100.908 39.6159 100.908 36.8164V36.5234C100.745 33.0404 100.192 31.1361 99.248 30.8105C97.5879 31.5592 96.7578 33.5612 96.7578 36.8164Z" fill="#3C1A05"/>
<path d="M111.012 24.7559C111.891 24.7559 112.558 25.8138 113.014 27.9297H113.16C114.397 26.4648 115.732 25.7324 117.164 25.7324C119.508 26.1556 120.68 26.888 120.68 27.9297C120.387 28.8411 119.882 29.2969 119.166 29.2969L117.311 28.7109H116.822C114.902 29.069 113.941 33.0241 113.941 40.5762V42.8711C113.746 43.8802 113.29 44.3848 112.574 44.3848C111.533 44.3848 111.012 43.7663 111.012 42.5293V36.8652C111.012 32.6986 110.491 29.0527 109.449 25.9277C109.71 25.1465 110.23 24.7559 111.012 24.7559Z" fill="#3C1A05"/>
<path d="M134.592 28.0273L137.521 28.5156V28.3691C138.238 28.3691 138.791 28.9388 139.182 30.0781L139.035 33.1543V35.3027C139.035 38.4603 139.491 40.8203 140.402 42.3828C140.142 43.1966 139.637 43.6035 138.889 43.6035C137.814 43.6035 137.033 42.3665 136.545 39.8926L136.447 39.1113H136.008C134.836 41.8783 133.176 43.7174 131.027 44.6289L130.295 44.8242C127.495 44.043 126.096 41.9922 126.096 38.6719V38.3789C126.096 34.2448 128.098 30.957 132.102 28.5156L134.592 28.0273ZM129.025 39.3066C129.253 40.9342 129.774 41.748 130.588 41.748H130.734C131.874 41.748 133.664 38.3138 136.105 31.4453V31.2988L134.689 31.0059H134.592C131.988 31.0059 130.132 33.252 129.025 37.7441V39.3066Z" fill="#3C1A05"/>
<path d="M150.896 1.80664C151.938 1.80664 152.394 4.94792 152.264 11.2305C152.166 17.4805 152.117 21.9076 152.117 24.5117H152.215L155.145 24.0723C156.089 24.2025 156.561 24.6745 156.561 25.4883C156.561 26.5951 155.535 27.1484 153.484 27.1484L152.215 27.5879L152.654 43.9453C152.524 45.0521 152.02 45.6055 151.141 45.6055C150.099 45.6055 149.578 44.8405 149.578 43.3105V39.4531L149.48 28.5645L149.285 28.0762L147.137 28.2227C146.225 28.0273 145.77 27.5228 145.77 26.709C145.77 25.6999 146.893 25.1953 149.139 25.1953V25C149.139 20.8333 149.204 13.5579 149.334 3.17383C149.334 2.36003 149.855 1.9043 150.896 1.80664Z" fill="#3C1A05"/>
<path d="M165.736 19.5801C166.583 19.5801 167.104 20.1335 167.299 21.2402C167.299 21.7611 166.941 22.2656 166.225 22.7539H165.736C164.825 22.7539 164.369 22.2005 164.369 21.0938C164.63 20.0846 165.085 19.5801 165.736 19.5801ZM166.078 26.1719C167.185 26.3346 167.494 27.9785 167.006 31.1035C166.615 33.6751 166.55 37.9883 166.811 44.043C166.322 44.987 165.688 45.3939 164.906 45.2637C163.995 45.1335 163.62 43.5221 163.783 40.4297C163.718 35.026 163.995 30.5013 164.613 26.8555C164.678 26.3672 165.167 26.1393 166.078 26.1719Z" fill="#3C1A05"/>
<path d="M180.332 27.5391C183.132 28.5482 184.613 31.6406 184.775 36.8164V37.1094C184.645 41.4388 183.522 44.0918 181.406 45.0684L180.039 45.2637C176.556 44.4173 174.814 41.7969 174.814 37.4023V37.2559C174.814 32.5033 176.344 29.3294 179.404 27.7344L180.332 27.5391ZM177.695 36.8164V37.8906C178.053 40.9505 178.997 42.4805 180.527 42.4805C181.406 41.5039 181.846 39.6159 181.846 36.8164V36.5234C181.683 33.0404 181.13 31.1361 180.186 30.8105C178.525 31.5592 177.695 33.5612 177.695 36.8164Z" fill="#3C1A05"/>
<path d="M199.762 27.0996C203.049 27.36 204.384 31.3151 203.766 38.9648L203.375 43.3105C203.18 44.4824 202.61 45.0358 201.666 44.9707C200.787 44.9056 200.396 44.3197 200.494 43.2129L200.836 38.4766C201.292 32.9102 200.803 30.0781 199.371 29.9805C197.841 29.8503 196.734 32.7474 196.051 38.6719L196.246 43.9453C196.181 44.6289 195.628 44.987 194.586 45.0195C193.382 44.9219 192.926 43.1966 193.219 39.8438L192.047 28.6621C192.112 27.9134 192.714 27.5065 193.854 27.4414C194.537 27.474 194.944 28.2064 195.074 29.6387L195.27 29.6875C196.734 27.8646 198.232 27.002 199.762 27.0996Z" fill="#3C1A05"/>
</svg>
