<svg width="1005" height="1181" viewBox="0 0 1005 1181" fill="none" xmlns="http://www.w3.org/2000/svg">
<path d="M68 0H937V708H68V0Z" fill="white"/>
<path d="M937 0H968.416C988.621 0 1005 17.6219 1005 39.3595C1005 61.0971 988.621 78.7191 968.416 78.7191C988.621 78.7191 1005 96.341 1005 118.079C1005 139.816 988.621 157.438 968.416 157.438C988.621 157.438 1005 175.06 1005 196.798C1005 218.535 988.621 236.157 968.416 236.157C988.621 236.157 1005 253.779 1005 275.517C1005 297.254 988.621 314.876 968.416 314.876C988.621 314.876 1005 332.498 1005 354.236C1005 375.973 988.621 393.595 968.416 393.595C988.621 393.595 1005 411.217 1005 432.955C1005 454.692 988.621 472.314 968.416 472.314C988.621 472.314 1005 489.936 1005 511.674C1005 533.412 988.621 551.033 968.416 551.033C988.621 551.033 1005 568.655 1005 590.393C1005 612.131 988.621 629.753 968.416 629.753C988.621 629.753 1005 647.374 1005 669.112C1005 690.85 988.621 708.472 968.416 708.472H937V0Z" fill="white"/>
<path d="M68 0H36.5842C16.3793 0 0 17.6219 0 39.3595C0 61.0971 16.3793 78.7191 36.5842 78.7191C16.3793 78.7191 0 96.341 0 118.079C0 139.816 16.3793 157.438 36.5842 157.438C16.3793 157.438 0 175.06 0 196.798C0 218.535 16.3793 236.157 36.5842 236.157C16.3793 236.157 0 253.779 0 275.517C0 297.254 16.3793 314.876 36.5842 314.876C16.3793 314.876 0 332.498 0 354.236C0 375.973 16.3793 393.595 36.5842 393.595C16.3793 393.595 0 411.217 0 432.955C0 454.692 16.3793 472.314 36.5842 472.314C16.3793 472.314 0 489.936 0 511.674C0 533.412 16.3793 551.033 36.5842 551.033C16.3793 551.033 0 568.655 0 590.393C0 612.131 16.3793 629.753 36.5842 629.753C16.3793 629.753 0 647.374 0 669.112C0 690.85 16.3793 708.472 36.5842 708.472H68V0Z" fill="white"/>
<path d="M68 708H939L937 1180.31H68V708Z" fill="white"/>
<path d="M939 708H968.416C988.621 708 1005 725.622 1005 747.359C1005 769.097 988.621 786.719 968.416 786.719C988.621 786.719 1005 804.341 1005 826.079C1005 847.816 988.621 865.438 968.416 865.438C988.621 865.438 1005 883.06 1005 904.798C1005 926.535 988.621 944.157 968.416 944.157C988.621 944.157 1005 961.779 1005 983.517C1005 1005.25 988.621 1022.88 968.416 1022.88C988.621 1022.88 1005 1040.5 1005 1062.24C1005 1083.97 988.621 1101.6 968.416 1101.6C988.621 1101.6 1005 1119.22 1005 1140.95C1005 1162.69 988.621 1180.31 968.416 1180.31C958.611 1180.31 948.805 1180.31 939 1180.31H937L939 708Z" fill="white"/>
<path d="M68 708H36.5842C16.3793 708 0 725.622 0 747.359C0 769.097 16.3793 786.719 36.5842 786.719C16.3793 786.719 0 804.341 0 826.079C0 847.816 16.3793 865.438 36.5842 865.438C16.3793 865.438 0 883.06 0 904.798C0 926.535 16.3793 944.157 36.5842 944.157C16.3793 944.157 0 961.779 0 983.517C0 1005.25 16.3793 1022.88 36.5842 1022.88C16.3793 1022.88 0 1040.5 0 1062.24C0 1083.97 16.3793 1101.6 36.5842 1101.6C16.3793 1101.6 0 1119.22 0 1140.95C0 1162.69 16.3793 1180.31 36.5842 1180.31H51.5H68V708Z" fill="white"/>
</svg>
